<svg xmlns="http://www.w3.org/2000/svg" viewBox="0 0 1906 730" class="logo  ">
    <title>Logo Sled</title>
    <defs>
        <clipPath clipPathUnits="userSpaceOnUse" id="cp1">
        <path d="M-339 -361L2267 -361L2267 1092L-339 1092Z"></path>
        </clipPath>
        <linearGradient id="grd1" gradientUnits="userSpaceOnUse" x1="-222.099" y1="348.659" x2="2120.268" y2="382.606">
        <stop offset="0" stop-color="#00aed7"></stop>
        <stop offset="1" stop-color="#3cfd92"></stop>
        </linearGradient>
    </defs>
    <style>
        tspan {
        white-space: pre;
        }
        .logo-shape {
        fill: url(#grd1);
        }
    </style>
    <g id="Page 1" clip-path="url(#cp1)">
        <path id="Path 1" fill-rule="evenodd" class="logo-shape" d="M315.39 0.65C372.08 0.65 426.47 5.39 466.64 11.43L466.64 160.24C397.99 148.72 277.32 140.96 198.71 157.88C163.97 165.36 147.82 191.39 147.22 213.88C146.66 235.12 159.12 249.35 184.27 256.18C212.83 263.93 245.46 268.15 280.01 272.61C382.66 285.87 534.12 305.51 554.29 468.44L554.29 11.43L701.29 11.43L701.29 489.8C701.29 514.44 710.93 537.55 728.41 554.9C745.72 572.06 768.61 581.47 792.95 581.47L793.12 581.47C813.03 580.9 829.12 579.46 842.51 577C822.46 538.94 810.97 496.63 809.74 452.36C807.62 376.24 835.28 303.84 887.62 248.51C939.94 193.18 1010.7 161.55 1086.82 159.44C1162.55 157.3 1235.34 184.98 1290.66 237.32C1320.16 265.22 1321.45 311.74 1293.55 341.23L1072.26 575.17C1102.72 580.78 1138.65 581.27 1174.66 571.97C1251.55 552.15 1316 495.88 1338.19 402.65C1351.62 346.25 1372.2 291.93 1412.87 248.93C1465.21 193.61 1535.95 161.98 1612.07 159.86C1665 158.44 1714.89 171.55 1758.02 195.47L1758.02 5.37L1905.03 5.37L1905.03 438.98L1905.01 438.98C1908.24 595.22 1784.38 725.51 1627.92 729.87C1625.2 729.94 1622.49 729.97 1619.79 729.97C1546.64 729.97 1477.43 702.46 1424.07 651.99C1410 638.67 1397.49 624.13 1386.58 608.65C1339.36 660.35 1280.12 696.6 1211.37 714.33C1179.92 722.44 1147.31 726.35 1115.16 726.35C1057.2 726.35 1000.63 713.68 954.44 690.14C905.27 720.43 848.41 727.01 796.4 728.46C795.25 728.48 794.06 728.48 792.91 728.48C729.55 728.49 669.96 703.96 624.91 659.29C586.35 621.07 562.67 572.03 556.24 518.99C548.86 702.11 380.04 729.97 278.46 729.97C137.69 729.97 51.43 672.99 22.41 649.44L22.41 497.23C43.11 511.38 163.38 584.27 278.46 582.96C379.77 581.8 409.57 538.83 409.59 506.6C409.63 449.77 368.99 430.95 261.17 418.41C223.17 414 184.01 408.44 145.74 398.06C54.99 373.41 -2.13 299.58 0.26 209.97C2.77 115.37 71.66 34.86 167.77 14.16C213.3 4.36 265.24 0.65 315.39 0.65ZM960.97 478.9L1121.71 308.96C1112.94 307.23 1103.96 306.35 1094.84 306.35C1093.53 306.35 1092.22 306.36 1090.91 306.4C1054.03 307.42 1019.76 322.74 994.42 349.54C969.07 376.34 955.68 411.4 956.7 448.28C956.99 458.74 958.43 469 960.97 478.9ZM1619.69 582.97C1621.07 582.97 1622.45 582.95 1623.83 582.9C1699.95 580.79 1760.15 517.14 1758.04 441.02C1755.96 366.21 1694.43 306.76 1620.05 306.76C1618.76 306.76 1617.46 306.78 1616.16 306.82C1579.28 307.84 1545.02 323.16 1519.67 349.96C1494.33 376.76 1480.94 411.82 1481.96 448.69L1481.96 448.7C1482.99 485.57 1498.3 519.83 1525.1 545.19C1550.89 569.58 1584.75 582.97 1619.69 582.97Z"></path>
    </g>
</svg>